<?xml version="1.0" standalone="no"?>
<!DOCTYPE svg PUBLIC "-//W3C//DTD SVG 20010904//EN"
 "http://www.w3.org/TR/2001/REC-SVG-20010904/DTD/svg10.dtd">
<svg version="1.0" xmlns="http://www.w3.org/2000/svg"
 width="223.000000pt" height="64.000000pt" viewBox="0 0 223.000000 64.000000"
 preserveAspectRatio="xMidYMid meet">

<g transform="translate(0.000000,64.000000) scale(0.100000,-0.100000)"
fill="#ffffff" stroke="none">
<path d="M250 540 c9 -17 -5 -56 -86 -233 -53 -116 -99 -218 -101 -224 -4 -10
26 -13 128 -13 74 0 139 4 145 8 6 4 53 103 104 220 l94 212 112 0 c62 0 115
-3 118 -8 2 -4 -15 -39 -38 -77 l-42 -70 -79 -5 c-47 -3 -80 -10 -82 -17 -5
-14 251 -241 287 -255 16 -6 220 -7 552 -2 465 6 529 9 544 23 9 9 38 54 64
101 41 72 46 87 34 96 -12 10 -11 13 10 18 30 7 140 177 141 216 l0 25 -392 3
c-379 2 -391 2 -386 -17 7 -27 -194 -350 -237 -379 l-33 -22 151 0 150 0 22
27 c12 16 63 98 113 183 l92 155 128 3 c70 1 127 -1 127 -5 0 -3 -21 -40 -47
-80 l-48 -73 -111 0 c-116 0 -144 -10 -130 -45 4 -12 25 -15 101 -15 63 0 95
-4 95 -11 0 -16 -70 -131 -88 -146 -12 -10 -88 -13 -301 -13 l-286 0 -109 87
-110 88 48 7 c79 11 98 24 137 91 20 34 46 78 58 98 20 34 20 38 6 53 -15 14
-64 16 -441 16 -423 0 -425 0 -414 -20z"/>
</g>
</svg>
